<?xml version="1.0" encoding="UTF-8" standalone="no"?>
<svg
   xmlns:dc="http://purl.org/dc/elements/1.1/"
   xmlns:cc="http://creativecommons.org/ns#"
   xmlns:rdf="http://www.w3.org/1999/02/22-rdf-syntax-ns#"
   xmlns:svg="http://www.w3.org/2000/svg"
   xmlns="http://www.w3.org/2000/svg"
   id="svg8"
   version="1.1"
   viewBox="0 0 210 297"
   height="297mm"
   width="210mm">
  <defs
     id="defs2" />
  <metadata
     id="metadata5">
    <rdf:RDF>
      <cc:Work
         rdf:about="">
        <dc:format>image/svg+xml</dc:format>
        <dc:type
           rdf:resource="http://purl.org/dc/dcmitype/StillImage" />
        <dc:title></dc:title>
      </cc:Work>
    </rdf:RDF>
  </metadata>
  <g
     id="layer1">
    <path
       id="path826"
       d="m 74.817427,291.84357 c 0.002,-0.75717 0.067,-2.53221 0.14539,-3.94453 0.0784,-1.41232 0.18218,-3.58893 0.23062,-4.83691 0.0485,-1.24799 0.15018,-3.1397 0.22607,-4.20382 0.0759,-1.06412 0.2051,-3.27422 0.28713,-4.91132 0.082,-1.63711 0.24888,-4.14859 0.37079,-5.58106 0.1219,-1.43247 0.29247,-3.47514 0.37905,-4.53926 0.0866,-1.06412 0.21785,-2.47054 0.29171,-3.12539 0.12605,-1.11743 0.250191,-3.6989 0.36858,-7.66465 0.07302,-2.44596 -0.148908,-6.09357 -0.40855,-6.71499 -0.11871,-0.2841 -0.26359,-1.04932 -0.32196,-1.70048 -0.0584,-0.65117 -0.20245,-1.66113 -0.32018,-2.24436 -0.11773,-0.58322 -0.27201,-1.58781 -0.34285,-2.23242 -0.71448,-6.50149 -0.86042,-7.27009 -1.61194,-8.48967 -0.29414,-0.47734 -0.64383,-1.0688 -0.77708,-1.31437 -0.45359,-0.8359 -0.80403,-1.33869 -1.34851,-1.93476 -0.29908,-0.32742 -0.9491,-1.23155 -1.44449,-2.00918 -2.53165,-3.97399 -3.94757,-7.28963 -5.46581,-12.79922 -0.81745,-2.96649 -0.96877,-3.54465 -1.0322,-3.94394 -0.14911,-0.93865 -0.39235,-1.95748 -0.60405,-2.53008 -0.12105,-0.32742 -0.22303,-0.70344 -0.22662,-0.83558 -0.004,-0.13215 -0.27465,-0.95407 -0.60235,-1.8265 -1.01316,-2.69733 -1.6702,-6.02204 -1.9298,-9.76507 -0.24458,-3.52647 -0.45526,-6.10667 -0.71696,-8.78086 -0.30876,-3.15501 -0.30202,-4.61602 0.0254,-5.50664 0.13541,-0.36835 0.34367,-1.16306 0.4628,-1.76604 0.11913,-0.60298 0.28905,-1.18362 0.3776,-1.29031 0.099,-0.11923 0.16295,-1.04471 0.16606,-2.40115 0.004,-1.88409 0.0605,-2.41409 0.38357,-3.62102 0.20819,-0.77762 0.39611,-1.55473 0.41761,-1.72688 0.0215,-0.17216 0.24699,-0.96832 0.50108,-1.76924 0.2541,-0.80093 0.46199,-1.57954 0.46199,-1.73024 0,-0.56978 0.64297,-2.20089 1.03811,-2.63352 0.76929,-0.84226 2.2813,-0.78228 3.45521,0.13706 0.59299,0.4644 0.92841,0.53806 1.11196,0.24421 0.24874,-0.3982 0.81757,-2.80709 1.09825,-4.65088 0.37635,-2.47223 0.51657,-3.18987 0.86751,-4.43986 0.2671,-0.95137 1.31287,-3.171 1.72971,-3.67127 0.1023,-0.12278 0.30433,-0.59159 0.44895,-1.0418 0.62526,-1.94646 1.89181,-3.63251 3.34717,-4.45579 l 0.96739,-0.54723 v -5.12593 c 0,-2.81926 0.0167,-5.26514 0.0372,-5.43528 0.08183,-0.68033 0.915107,-1.65033 1.842232,-2.14448 0.833433,-0.44422 0.996534,-0.47954 1.91193,-0.41404 1.24246,0.0889 2.297781,0.62683 3.201404,1.63188 0.862275,0.95906 1.358881,2.49113 1.461942,4.51021 0.04178,0.81855 0.154863,1.6892 0.251292,1.93476 0.242149,0.61666 0.445919,4.67072 0.347845,6.92051 -0.05848,1.34159 -0.01447,2.26454 0.157818,3.30982 0.131402,0.79721 0.238912,1.82311 0.238912,2.27977 0,0.85278 0.27578,3.1315 0.665403,5.49811 0.121285,0.7367 0.256877,2.1493 0.301316,3.13911 0.04444,0.98982 0.178808,2.26231 0.298595,2.82773 0.119789,0.56545 0.218962,1.43036 0.220384,1.92203 0.0015,0.49167 0.07968,1.12791 0.173905,1.41387 0.09756,0.29607 0.222143,2.24996 0.289362,4.53827 0.187503,6.38305 0.311176,7.00607 1.532786,7.72199 0.81171,0.47569 1.02982,0.48392 1.44014,0.0543 0.31194,-0.32662 0.31749,-0.40631 0.22547,-3.23701 -0.22845,-7.02756 -0.52661,-10.70888 -1.07219,-13.23819 -0.19591,-0.90824 -0.21882,-1.55403 -0.12668,-3.57187 0.24186,-5.29711 0.17611,-6.50401 -0.58422,-10.72314 -0.23472,-1.30245 -0.92025,-5.44626 -1.13259,-6.8461 -0.630232,-4.15471 -0.643789,-4.30774 -0.455952,-5.14709 0.446292,-1.99424 2.844252,-3.04974 4.740452,-2.08657 1.20912,0.61416 2.11646,1.53758 2.654,2.70104 0.44084,0.95413 0.69847,1.65606 1.79363,4.88697 0.19092,0.56324 0.34713,1.18606 0.34713,1.38405 0,0.19799 0.093,0.54083 0.20671,0.76186 0.11369,0.22104 0.28116,0.83721 0.37214,1.36927 0.32544,1.90298 0.56247,3.0591 0.73226,3.57188 0.29062,0.87758 0.77256,3.01109 0.77123,3.41417 0,0.20952 0.0959,0.81627 0.21466,1.34833 0.964597,4.32212 1.274867,6.18003 1.274867,7.63396 0,0.69826 0.0937,1.76098 0.20817,2.36163 0.11451,0.60066 0.26164,1.56091 0.32697,2.1339 0.0653,0.57299 0.12736,1.07528 0.13782,1.11621 0.0104,0.0409 0.0666,0.40928 0.12466,0.81856 0.23192,1.63389 0.70671,4.3692 0.91706,5.2834 0.12243,0.53206 0.22202,1.22938 0.22134,1.54961 0,0.32023 0.0966,0.92299 0.21626,1.33945 0.27017,0.94049 0.78498,3.13557 0.87571,3.73379 0.2365,1.55961 0.47467,2.6863 0.80221,3.79511 0.20553,0.69578 0.44086,1.53293 0.52295,1.86036 0.0821,0.32742 0.2311,0.82971 0.33113,1.11621 0.10004,0.28649 0.33715,0.98726 0.52694,1.55726 0.18977,0.57001 0.7099,1.77552 1.15584,2.67891 0.97435,1.97387 1.52083,3.19084 1.52083,3.38682 0,0.34233 0.65451,1.01404 1.3957,1.43233 0.44017,0.24841 1.1936,0.81104 1.67429,1.25027 0.48067,0.43923 1.2758,1.06699 1.76693,1.39501 0.49113,0.32801 1.44359,0.97729 2.11656,1.44282 1.36366,0.94331 1.64246,0.99812 2.88329,0.56677 0.44244,-0.15381 1.13931,-0.39725 1.54859,-0.54097 1.01713,-0.35718 1.48645,-0.72358 3.69971,-2.88847 1.82953,-1.78954 2.95729,-3.08046 3.86514,-4.42429 0.22947,-0.33967 0.73088,-0.90814 1.11427,-1.26327 0.38338,-0.35513 1.43711,-1.34971 2.34163,-2.21017 1.99075,-1.89377 6.40255,-5.47634 8.20486,-6.6627 1.81264,-1.19314 2.64877,-1.49923 4.36364,-1.59747 1.80499,-0.10339 2.70915,0.22229 3.62294,1.305 0.51913,0.61509 0.60874,0.82797 0.66273,1.57439 0.0491,0.67854 -0.007,0.99876 -0.26109,1.4973 -0.54024,1.05896 -1.27151,1.97802 -2.2883,2.87594 -0.53224,0.47001 -1.2719,1.30717 -1.64369,1.86035 -0.37179,0.55317 -1.18293,1.52996 -1.80253,2.17062 -0.87269,0.90236 -1.29372,1.49797 -1.86839,2.64312 -0.92995,1.85317 -1.91339,3.16053 -4.30222,5.71929 -1.14395,1.22533 -2.52335,2.81787 -2.82276,3.25889 -0.11603,0.1709 -0.57083,0.79492 -1.01068,1.38672 -0.43986,0.5918 -1.00172,1.46245 -1.24859,1.93477 -0.56914,1.0889 -0.9997,1.79454 -1.48617,2.43564 -0.21147,0.2787 -0.63535,0.95795 -0.94195,1.50946 -0.89373,1.60761 -2.23433,3.30092 -3.39764,4.29151 -0.59411,0.50591 -1.23861,1.09553 -1.43222,1.31025 -0.49488,0.54888 -1.8727,2.41444 -2.10672,2.85245 -0.10744,0.20115 -0.81445,1.06892 -1.57111,1.9284 -0.75667,0.85948 -1.80032,2.11025 -2.31924,2.77948 -2.81464,3.62995 -5.03224,5.99581 -6.59897,7.0402 -1.32527,0.88343 -2.01009,1.5049 -2.3134,2.09943 -0.16343,0.32035 -0.26394,0.58245 -0.22339,0.58245 0.0406,0 0.006,0.17879 -0.0773,0.3973 -0.0831,0.21852 -0.28228,1.1394 -0.44269,2.04639 -0.16039,0.907 -0.36006,2.01744 -0.4437,2.46764 -0.64443,3.46857 -0.62255,3.04432 -0.64502,12.5154 -0.0182,7.65839 0.0189,9.51284 0.22872,11.44593 0.13771,1.26876 0.29023,3.91418 0.33892,5.87871 0.17906,7.22287 0.2854,9.17891 0.7363,13.54336 0.29941,2.89802 0.52151,5.36999 0.68198,7.59023 0.071,0.98227 0.20084,1.97448 0.28857,2.20491 0.0877,0.23043 0.15949,0.54855 0.15949,0.70693 0,0.28309 -0.29367,0.28797 -17.338477,0.28797 H 74.814597 l 0.003,-1.37666 z m -5.95726,-110.13281 c -0.002,-0.94688 -0.17366,-2.19522 -0.30199,-2.19522 -0.19594,0 -0.32514,1.97974 -0.15782,2.41846 0.23167,0.60747 0.46128,0.49598 0.45981,-0.22324 z m 56.734663,-18.57489 c -1.95626,-0.97756 -2.9087,-2.76134 -3.05483,-5.72131 -0.0404,-0.81855 -0.14986,-1.6856 -0.2432,-1.92677 -0.1114,-0.28781 -0.18224,-2.07837 -0.20617,-5.21099 -0.02,-2.62488 -0.0838,-4.84906 -0.1416,-4.94263 -0.0578,-0.0936 -0.17335,-0.86285 -0.25673,-1.70951 -0.1899,-1.92845 -0.54399,-4.5982 -0.81608,-6.15307 -0.11458,-0.65484 -0.24525,-2.02888 -0.29038,-3.05341 -0.0451,-1.02454 -0.18109,-2.33051 -0.30218,-2.90215 -0.12109,-0.57165 -0.22132,-1.41215 -0.22274,-1.86778 -10e-4,-0.45564 -0.0661,-1.19234 -0.14366,-1.63711 -0.0776,-0.44478 -0.18027,-2.44952 -0.22818,-4.45497 -0.0938,-3.92665 -0.34384,-6.14431 -0.77412,-6.86553 -0.14877,-0.24938 -0.58522,-0.63053 -0.96989,-0.84699 l -0.69939,-0.39358 -0.41683,0.31145 -0.4168,0.31144 0.006,2.36494 c 0.009,3.61948 0.21986,7.87979 0.45884,9.28545 0.70955,4.17355 0.75131,4.99871 0.63094,12.46436 -0.0279,1.7276 0.0328,2.755 0.2307,3.90674 0.57202,3.3293 0.65893,3.82323 0.82499,4.68808 0.2662,1.38633 0.54223,2.98667 0.79577,4.61367 0.82293,5.28065 0.6972,6.11249 -1.0854,7.18096 -0.66389,0.39794 -0.96063,0.48369 -1.67357,0.48369 -1.80609,0 -3.7808,-1.57235 -4.50049,-3.5835 -0.83427,-2.33136 -1.86425,-5.53294 -1.86425,-5.79485 0,-0.17064 -0.0908,-0.49111 -0.20175,-0.71214 -0.11097,-0.22104 -0.35301,-1.23905 -0.53785,-2.26224 -0.18486,-1.0232 -0.42489,-2.13543 -0.53342,-2.47163 -0.10852,-0.3362 -0.238,-0.96723 -0.28774,-1.40227 -0.0497,-0.43505 -0.12209,-0.8422 -0.16077,-0.90477 -0.0387,-0.0626 -0.16444,-0.60358 -0.27948,-1.20222 -0.11503,-0.59865 -0.28392,-1.42331 -0.37528,-1.83259 -0.85981,-3.85158 -1.17049,-5.79538 -1.26076,-7.88789 -0.0948,-2.19658 -0.20395,-3.10629 -0.66993,-5.58105 -0.0848,-0.45021 -0.28977,-1.65572 -0.45555,-2.67891 -0.16578,-1.02319 -0.4016,-2.29567 -0.52402,-2.82773 -0.12243,-0.53206 -0.22203,-1.2436 -0.22134,-1.58119 0,-0.3376 -0.0926,-0.87985 -0.20733,-1.20501 -0.11474,-0.32515 -0.24721,-0.91959 -0.2944,-1.32096 -0.0472,-0.40136 -0.18919,-1.16508 -0.31558,-1.69714 -0.12637,-0.53206 -0.33138,-1.46968 -0.45556,-2.08359 -0.23637,-1.16846 -0.69744,-2.93158 -1.03136,-3.94395 -0.10799,-0.32742 -0.27934,-0.99715 -0.38075,-1.48828 -0.10141,-0.49113 -0.30462,-1.16086 -0.45156,-1.48828 -0.14695,-0.32742 -0.5127,-1.1311 -0.81275,-1.78594 -0.30007,-0.65484 -0.878587,-1.92732 -1.285607,-2.82773 -0.40701,-0.90041 -0.81855,-1.79872 -0.91453,-1.99625 -0.096,-0.19753 -0.62249,-0.646532 -1.17003,-0.997792 -0.54752,-0.351263 -1.35119,-0.960512 -1.78594,-1.35389 -0.7311,-0.661557 -2.28786,-1.787025 -3.45547,-2.498163 -0.26879,-0.163711 -0.72901,-0.481831 -1.02271,-0.706934 -0.67188,-0.514972 -1.24449,-0.520126 -2.41419,-0.02173 -0.491138,0.209266 -1.114869,0.435982 -1.386073,0.503815 -0.271205,0.06783 -0.740013,0.29006 -1.041796,0.493838 -0.683775,0.461719 -4.960933,4.679086 -5.332549,5.258006 -1.362537,2.12261 -4.679298,5.4136 -8.529138,8.46285 -4.99465,3.95599 -6.18417,4.62385 -8.53054,4.78943 -1.99555,0.14083 -3.24622,-0.41332 -4.04297,-1.79135 -0.41133,-0.71142 -0.46878,-1.84678 -0.12777,-2.5249 0.39325,-0.782 1.49303,-2.10669 2.41329,-2.90683 0.50387,-0.4381 1.25994,-1.30874 1.68017,-1.93477 0.42022,-0.62602 1.17109,-1.54193 1.6686,-2.03535 0.64447,-0.63918 1.15506,-1.3638 1.77581,-2.5202 1.04139,-1.940018 1.56565,-2.666593 3.3114,-4.589279 2.66138,-2.931118 5.69395,-6.822459 6.343823,-8.140302 0.141536,-0.287014 0.536807,-0.957164 0.878379,-1.489225 0.341573,-0.53206 0.96247,-1.536935 1.379771,-2.233054 0.916295,-1.528513 2.168201,-3.116213 3.15536,-4.001707 1.656338,-1.485756 1.935368,-1.780843 2.909825,-3.077272 0.560307,-0.745438 1.018739,-1.403259 1.018739,-1.461825 0,-0.102845 0.873764,-1.196936 2.344209,-2.935323 0.38872,-0.459551 1.00814,-1.225519 1.37649,-1.70215 2.29161,-2.965257 5.14255,-5.918799 7.01491,-7.267355 0.75092,-0.540841 1.53156,-1.228007 1.73476,-1.527037 0.48037,-0.706931 0.90301,-2.112191 1.00078,-3.32748 0.0428,-0.532061 0.17158,-1.402705 0.286197,-1.934766 0.446,-2.070382 0.54579,-3.024309 0.67722,-6.474023 0.17596,-4.618281 0.0938,-16.042499 -0.12521,-17.412891 -0.16277,-1.018428 -0.43703,-6.934853 -0.47955,-10.345413 -0.0259,-2.077182 -0.398277,-9.020422 -0.501797,-9.356646 -0.0408,-0.1325 -0.17628,-1.312472 -0.30105,-2.622159 -0.12478,-1.3096874 -0.26359,-2.5989112 -0.30846,-2.8649415 l -0.0816,-0.4836914 h 17.068227 17.06824 l -0.0919,0.9301758 c -0.0506,0.5115967 -0.1602,2.1356841 -0.24363,3.6090821 -0.0834,1.473398 -0.24959,4.118818 -0.36921,5.87871 -0.11962,1.759893 -0.25731,4.07045 -0.30599,5.134571 -0.0487,1.064121 -0.14968,2.537519 -0.22447,3.274219 -0.0748,0.736699 -0.17627,2.042666 -0.22552,2.902148 -0.0492,0.859482 -0.14732,2.028509 -0.21793,2.597837 -0.0706,0.569327 -0.10264,1.076787 -0.0712,1.12769 0.0315,0.0509 -0.0443,0.790595 -0.16833,1.643765 -0.16914,1.163401 -0.23196,3.113956 -0.25127,7.801997 -0.023,5.574427 10e-4,6.311104 0.22479,6.808278 0.1378,0.306623 0.29293,1.076809 0.34473,1.711523 0.0518,0.634715 0.18854,1.622836 0.30385,2.195824 0.1153,0.572988 0.27446,1.611064 0.35368,2.306836 0.0792,0.695771 0.24534,1.938634 0.36918,2.761918 0.12384,0.823283 0.23476,1.727414 0.24647,2.00918 0.034,0.816748 0.57795,3.000824 0.86895,3.488863 1.13151,1.897554 1.8924,3.053026 2.30312,3.497461 0.26476,0.286494 0.81802,1.05668 1.22945,1.711523 0.41144,0.654844 0.87423,1.391543 1.02842,1.63711 0.63298,1.008071 0.84804,1.401673 1.48452,2.716918 1.31516,2.717727 2.02516,4.695517 3.11184,8.668433 0.12314,0.450205 0.38941,1.421309 0.59171,2.158008 0.20232,0.736699 0.57778,2.243584 0.83438,3.348633 0.25661,1.105049 0.79154,2.91331 1.18876,4.018359 0.79698,2.217142 1.00522,2.938257 1.12511,3.89623 0.0443,0.353664 0.17361,1.245782 0.28742,1.982481 0.11382,0.736699 0.24512,1.908721 0.29179,2.604495 0.12972,1.933842 0.48788,6.312852 0.76688,9.376172 0.13794,1.51432 0.28098,3.12002 0.31789,3.56822 0.0678,0.82347 -0.16172,2.14778 -0.49073,2.83138 -0.0985,0.20464 -0.22765,0.70694 -0.28699,1.11622 -0.0594,0.40927 -0.20534,0.97798 -0.32441,1.26379 -0.15293,0.36701 -0.21871,1.13209 -0.22396,2.6045 -0.004,1.14666 -0.0735,2.38621 -0.15422,2.75456 -0.0807,0.36835 -0.17792,0.83716 -0.21601,1.04179 -0.1417,0.76139 -0.5049,2.04818 -0.94254,3.33935 -0.24798,0.73159 -0.45086,1.48714 -0.45086,1.67901 0,0.61179 -0.60545,2.18562 -1.00149,2.60331 -0.75519,0.79648 -2.36598,0.69764 -3.52108,-0.21605 -0.59222,-0.46845 -0.89751,-0.45623 -1.14284,0.0457 -0.30574,0.62557 -0.78328,2.69008 -1.04768,4.52931 -0.5026,3.49617 -0.83491,4.73541 -1.73603,6.47402 -0.44547,0.85948 -0.86295,1.62967 -0.92774,1.71152 -0.0648,0.0819 -0.21989,0.49518 -0.3447,0.91849 -0.28462,0.9653 -0.43286,1.24758 -1.23715,2.35573 -0.90009,1.2402 -1.18318,1.50412 -2.27132,2.11762 l -0.95171,0.53658 0.10675,5.01648 c 0.11695,5.49572 0.0845,5.81966 -0.67538,6.73964 -1.08389,1.31226 -3.06162,1.66282 -4.71626,0.83599 z m 13.92918,-48.52158 c -0.0381,-1.09179 -0.0794,-1.25641 -0.3273,-1.3038 -0.26566,-0.0508 -0.27794,0.0205 -0.19305,1.12134 0.10177,1.31962 0.22512,1.77085 0.4285,1.56747 0.0745,-0.0745 0.11583,-0.69776 0.0918,-1.38501 z"
       style="fill:#000000;stroke-width:0.14882812" />
  </g>
</svg>
