<?xml version="1.0" encoding="UTF-8" standalone="no"?><!DOCTYPE svg PUBLIC "-//W3C//DTD SVG 1.1//EN" "http://www.w3.org/Graphics/SVG/1.1/DTD/svg11.dtd"><svg width="100%" height="100%" viewBox="0 0 470 180" version="1.1" xmlns="http://www.w3.org/2000/svg" xmlns:xlink="http://www.w3.org/1999/xlink" xml:space="preserve" xmlns:serif="http://www.serif.com/" style="fill-rule:evenodd;clip-rule:evenodd;stroke-linejoin:round;stroke-miterlimit:1.41421;"><g><g><path d="M182.751,161.24c0,1.06 -0.016,2.144 -0.048,3.252c-0.032,1.108 -0.168,2.184 -0.409,3.227c-0.241,1.044 -0.611,2.024 -1.108,2.939c-0.498,0.915 -1.205,1.71 -2.12,2.385c-0.915,0.674 -2.088,1.212 -3.517,1.614c-1.429,0.401 -3.171,0.602 -5.227,0.602l-8.912,0l0,-67.107l8.912,0c2.056,0 3.798,0.192 5.227,0.578c1.429,0.385 2.602,0.923 3.517,1.614c0.915,0.69 1.622,1.493 2.12,2.408c0.497,0.916 0.867,1.887 1.108,2.915c0.241,1.028 0.377,2.104 0.409,3.228c0.032,1.124 0.048,2.216 0.048,3.275l0,39.07Zm-3.613,-40.659c0,-1.799 -0.192,-3.292 -0.578,-4.48c-0.385,-1.189 -0.979,-2.128 -1.782,-2.819c-0.803,-0.69 -1.823,-1.18 -3.059,-1.469c-1.237,-0.289 -2.722,-0.434 -4.457,-0.434l-4.239,0l0,60.652l4.239,0c1.735,0 3.22,-0.136 4.457,-0.409c1.236,-0.273 2.256,-0.755 3.059,-1.446c0.803,-0.69 1.397,-1.63 1.782,-2.818c0.386,-1.188 0.578,-2.682 0.578,-4.48l0,-42.297Z" style="fill:#fff;fill-rule:nonzero;"/><rect x="206.146" y="108.152" width="3.613" height="67.107" style="fill:#fff;fill-rule:nonzero;"/><path d="M254.978,111.813c0,3.854 -0.121,7.314 -0.362,10.382c-0.241,3.067 -0.61,5.829 -1.108,8.286c-0.498,2.456 -1.148,4.632 -1.951,6.527c-0.803,1.895 -1.766,3.581 -2.89,5.059c0.128,0.513 0.329,1.389 0.602,2.625c0.273,1.237 0.602,2.682 0.987,4.336c0.386,1.654 0.803,3.452 1.253,5.395c0.45,1.943 0.899,3.886 1.349,5.829c0.45,1.943 0.883,3.814 1.301,5.613c0.417,1.798 0.786,3.396 1.108,4.793c0.321,1.397 0.674,2.931 1.059,4.601l-3.854,0l-6.696,-30.109c-1.188,1.027 -2.489,1.951 -3.902,2.77c-1.413,0.819 -2.971,1.581 -4.673,2.288l0,25.051l-3.565,0l0,-53.089c0,-1.059 0.024,-2.151 0.073,-3.275c0.048,-1.124 0.184,-2.2 0.409,-3.228c0.225,-1.028 0.594,-1.999 1.108,-2.915c0.514,-0.915 1.228,-1.718 2.144,-2.408c0.915,-0.691 2.087,-1.229 3.517,-1.614c1.429,-0.386 3.187,-0.578 5.275,-0.578l8.816,0l0,3.661Zm-17.777,34.445c0.899,-0.386 1.879,-0.843 2.939,-1.373c1.06,-0.53 2.111,-1.245 3.155,-2.144c1.044,-0.899 2.056,-2.047 3.035,-3.444c0.98,-1.398 1.839,-3.148 2.578,-5.252c0.738,-2.103 1.332,-4.64 1.782,-7.611c0.45,-2.971 0.674,-6.48 0.674,-10.526l0,-4.529l-4.239,0c-1.702,0 -3.179,0.145 -4.432,0.434c-1.252,0.289 -2.288,0.779 -3.107,1.469c-0.819,0.691 -1.421,1.63 -1.807,2.819c-0.385,1.188 -0.578,2.681 -0.578,4.48l0,25.677Z" style="fill:#fff;fill-rule:nonzero;"/><path d="M280.733,137.297l14.067,0l0,3.228l-14.067,0l0,31.506l15.223,0l0,3.228l-18.836,0l0,-53.089c0,-1.059 0.024,-2.151 0.072,-3.275c0.049,-1.124 0.185,-2.2 0.41,-3.228c0.225,-1.028 0.594,-1.999 1.108,-2.915c0.514,-0.915 1.228,-1.718 2.144,-2.408c0.915,-0.691 2.087,-1.229 3.516,-1.614c1.43,-0.386 3.188,-0.578 5.275,-0.578l5.107,0l0,3.227l-4.095,0c-1.702,0 -3.179,0.145 -4.432,0.434c-1.252,0.289 -2.288,0.779 -3.107,1.469c-0.819,0.691 -1.421,1.63 -1.807,2.819c-0.385,1.188 -0.578,2.681 -0.578,4.48l0,16.716Z" style="fill:#fff;fill-rule:nonzero;"/><path d="M334.43,127.518l0,-16.187l-4.191,0c-1.735,0 -3.228,0.137 -4.48,0.41c-1.253,0.273 -2.281,0.754 -3.084,1.445c-0.803,0.69 -1.397,1.63 -1.782,2.818c-0.385,1.188 -0.578,2.682 -0.578,4.48l0,43.068c0,1.349 0.136,2.594 0.409,3.734c0.273,1.14 0.707,2.136 1.301,2.987c0.594,0.851 1.365,1.517 2.312,1.999c0.948,0.482 2.096,0.723 3.445,0.723c2.216,0 3.878,-0.643 4.986,-1.927c1.108,-1.285 1.662,-3.132 1.662,-5.541l0,-8.719l3.613,0l0,8.768c0,3.308 -0.851,5.909 -2.553,7.804c-1.702,1.895 -4.24,2.842 -7.612,2.842c-2.023,0 -3.749,-0.337 -5.179,-1.011c-1.429,-0.675 -2.585,-1.582 -3.468,-2.722c-0.883,-1.14 -1.526,-2.481 -1.927,-4.023c-0.402,-1.541 -0.602,-3.179 -0.602,-4.914l0,-41.43c0,-1.06 0.016,-2.143 0.048,-3.251c0.032,-1.108 0.169,-2.184 0.409,-3.228c0.241,-1.044 0.611,-2.023 1.108,-2.939c0.498,-0.915 1.205,-1.71 2.12,-2.384c0.915,-0.675 2.088,-1.213 3.517,-1.614c1.429,-0.402 3.171,-0.602 5.227,-0.602l8.912,0l0,19.414l-3.613,0Z" style="fill:#fff;fill-rule:nonzero;"/><path d="M377.625,108.152l0,3.227l-8.913,0l0,63.88l-3.613,0l0,-63.88l-8.96,0l0,-3.227l21.486,0Z" style="fill:#fff;fill-rule:nonzero;"/><path d="M418.025,162.637c0,1.766 -0.16,3.469 -0.481,5.107c-0.322,1.637 -0.892,3.083 -1.711,4.335c-0.819,1.253 -1.927,2.256 -3.324,3.011c-1.397,0.755 -3.155,1.132 -5.275,1.132c-1.991,0 -3.661,-0.361 -5.01,-1.084c-1.349,-0.722 -2.433,-1.694 -3.252,-2.914c-0.819,-1.221 -1.405,-2.658 -1.758,-4.312c-0.353,-1.654 -0.53,-3.412 -0.53,-5.275l0,-41.382c0,-1.06 0.024,-2.152 0.072,-3.276c0.049,-1.124 0.185,-2.2 0.41,-3.227c0.225,-1.028 0.594,-2 1.108,-2.915c0.514,-0.915 1.228,-1.718 2.144,-2.409c0.915,-0.69 2.087,-1.228 3.516,-1.614c1.43,-0.385 3.188,-0.578 5.275,-0.578l8.816,0l0,55.401Zm-3.613,-52.173l-4.191,0c-1.702,0 -3.179,0.145 -4.432,0.434c-1.252,0.289 -2.288,0.778 -3.107,1.469c-0.819,0.69 -1.421,1.63 -1.807,2.818c-0.385,1.188 -0.578,2.682 -0.578,4.48l0,44.562c0,1.156 0.121,2.256 0.361,3.3c0.241,1.044 0.643,1.975 1.205,2.794c0.562,0.819 1.293,1.469 2.192,1.951c0.899,0.482 2.023,0.723 3.372,0.723c1.285,0 2.369,-0.233 3.252,-0.699c0.883,-0.466 1.598,-1.1 2.144,-1.903c0.545,-0.803 0.947,-1.734 1.204,-2.794c0.257,-1.06 0.385,-2.184 0.385,-3.372l0,-53.763Z" style="fill:#fff;fill-rule:nonzero;"/><path d="M462.762,111.813c0,3.854 -0.121,7.314 -0.362,10.382c-0.24,3.067 -0.61,5.829 -1.108,8.286c-0.497,2.456 -1.148,4.632 -1.951,6.527c-0.803,1.895 -1.766,3.581 -2.89,5.059c0.128,0.513 0.329,1.389 0.602,2.625c0.273,1.237 0.602,2.682 0.988,4.336c0.385,1.654 0.803,3.452 1.252,5.395c0.45,1.943 0.899,3.886 1.349,5.829c0.45,1.943 0.883,3.814 1.301,5.613c0.417,1.798 0.787,3.396 1.108,4.793c0.321,1.397 0.674,2.931 1.06,4.601l-3.854,0l-6.697,-30.109c-1.188,1.027 -2.489,1.951 -3.902,2.77c-1.413,0.819 -2.971,1.581 -4.673,2.288l0,25.051l-3.565,0l0,-53.089c0,-1.059 0.024,-2.151 0.073,-3.275c0.048,-1.124 0.184,-2.2 0.409,-3.228c0.225,-1.028 0.594,-1.999 1.108,-2.915c0.514,-0.915 1.229,-1.718 2.144,-2.408c0.915,-0.691 2.087,-1.229 3.517,-1.614c1.429,-0.386 3.187,-0.578 5.275,-0.578l8.816,0l0,3.661Zm-17.777,34.445c0.9,-0.386 1.879,-0.843 2.939,-1.373c1.06,-0.53 2.112,-1.245 3.155,-2.144c1.044,-0.899 2.056,-2.047 3.035,-3.444c0.98,-1.398 1.839,-3.148 2.578,-5.252c0.738,-2.103 1.333,-4.64 1.782,-7.611c0.45,-2.971 0.675,-6.48 0.675,-10.526l0,-4.529l-4.24,0c-1.702,0 -3.179,0.145 -4.432,0.434c-1.252,0.289 -2.288,0.779 -3.107,1.469c-0.819,0.691 -1.421,1.63 -1.807,2.819c-0.385,1.188 -0.578,2.681 -0.578,4.48l0,25.677Z" style="fill:#fff;fill-rule:nonzero;"/></g><g><path d="M192.901,4.396l108.564,-0.618l-23.131,55.515l-109.799,-0.308l24.366,-54.589Z" style="fill:#fff;fill-rule:nonzero;"/><path d="M357.391,4.396l108.564,-0.618l-23.131,55.515l-109.797,-0.308l24.364,-54.589Z" style="fill:#fff;fill-rule:nonzero;"/><path d="M28.409,4.396l108.564,-0.618l-23.131,55.515l-109.797,-0.308l24.364,-54.589Z" style="fill:#fff;fill-rule:nonzero;"/><g><path d="M42.516,176.22l0,-40.828l-26.119,0l0,40.828l-11.03,0l0,-88.756l11.03,0l0,38.546l26.119,0l0,-38.546l11.031,0l0,88.756l-11.031,0Z" style="fill:#fff;fill-rule:nonzero;"/><path d="M97.418,139.448l-11.285,0l0,36.772l-11.031,0l0,-88.756l22.697,0c7.183,0 12.617,1.585 16.293,4.755c3.676,3.169 5.516,8.179 5.516,15.024l0,12.173c0,9.554 -3.804,15.512 -11.411,17.879l17.624,38.927l-12.044,0l-16.359,-36.774Zm8.938,-40.321c-1.48,-1.437 -3.825,-2.155 -7.037,-2.155l-13.186,0l0,32.966l13.186,0c3.212,0 5.557,-0.739 7.037,-2.219c1.478,-1.477 2.219,-3.825 2.219,-7.037l0,-14.581c0,-3.212 -0.741,-5.534 -2.219,-6.974Z" style="fill:#fff;fill-rule:nonzero;"/></g></g></g></svg>